<svg width="24" height="25" viewBox="0 0 24 25" fill="none" xmlns="http://www.w3.org/2000/svg">
<path d="M9.28139 12.5C9.28139 13.1962 9.55795 13.8639 10.0502 14.3562C10.5425 14.8484 11.2102 15.125 11.9064 15.125C12.6026 15.125 13.2703 14.8484 13.7625 14.3562C14.2548 13.8639 14.5314 13.1962 14.5314 12.5C14.5314 11.8038 14.2548 11.1361 13.7625 10.6438C13.2703 10.1516 12.6026 9.875 11.9064 9.875C11.2102 9.875 10.5425 10.1516 10.0502 10.6438C9.55795 11.1361 9.28139 11.8038 9.28139 12.5ZM22.083 11.8953C19.8611 7.21484 16.5025 4.85938 12.0001 4.85938C7.49545 4.85938 4.1392 7.21484 1.91732 11.8977C1.8282 12.0864 1.78198 12.2925 1.78198 12.5012C1.78198 12.7099 1.8282 12.916 1.91732 13.1047C4.1392 17.7852 7.49779 20.1406 12.0001 20.1406C16.5048 20.1406 19.8611 17.7852 22.083 13.1023C22.2634 12.7227 22.2634 12.282 22.083 11.8953ZM11.9064 16.625C9.62826 16.625 7.78139 14.7781 7.78139 12.5C7.78139 10.2219 9.62826 8.375 11.9064 8.375C14.1845 8.375 16.0314 10.2219 16.0314 12.5C16.0314 14.7781 14.1845 16.625 11.9064 16.625Z" fill="#CFCFCF"/>
</svg>
