<svg width="88" height="19" viewBox="0 0 88 19" fill="none" xmlns="http://www.w3.org/2000/svg">
<path d="M0.773438 3.9375V1.03125H14.6719V3.9375H9.46875V18H5.97656V3.9375H0.773438ZM20.3953 18.2578C16.5047 18.2578 14.1141 15.7266 14.1141 11.6953C14.1141 7.75781 16.5281 5.10938 20.2547 5.10938C23.6062 5.10938 26.2312 7.21875 26.2312 11.5547V12.5391H17.5359C17.5359 14.4609 18.6844 15.6562 20.4656 15.6562C21.6375 15.6562 22.4812 15.1406 22.8328 14.3672H26.1375C25.6453 16.7109 23.5359 18.2578 20.3953 18.2578ZM17.5359 10.3594H22.95C22.95 8.8125 21.8719 7.71094 20.325 7.71094C18.7312 7.71094 17.5945 8.89453 17.5359 10.3594ZM35.3766 9.04688C35.2359 8.15625 34.4391 7.57031 33.2906 7.57031C32.1656 7.57031 31.2984 8.10938 31.3219 8.88281C31.2984 9.44531 31.7672 9.89062 32.9625 10.1484L35.2359 10.6172C37.6969 11.1328 38.8922 12.2344 38.9156 14.0625C38.8922 16.5703 36.6422 18.2578 33.2672 18.2578C29.8219 18.2578 27.8062 16.7109 27.525 14.2266H31.0172C31.1812 15.2344 32.0016 15.75 33.2672 15.75C34.5328 15.75 35.3766 15.2344 35.3766 14.4141C35.3766 13.7578 34.8375 13.3594 33.6422 13.1016L31.5328 12.6797C29.1187 12.2109 27.8531 10.9453 27.8766 9.07031C27.8531 6.63281 29.9625 5.10938 33.2437 5.10938C36.4547 5.10938 38.4469 6.63281 38.6344 9.04688H35.3766ZM47.4516 5.27344V7.875H45.0609V14.0859C45.0609 15.0938 45.5531 15.3516 46.2562 15.375C46.6078 15.375 47.2172 15.3516 47.6391 15.3047V18.0469C47.2641 18.1172 46.6547 18.1641 45.7875 18.1641C43.2797 18.1641 41.5687 17.0391 41.5922 14.5781V7.875H39.8344V5.27344H41.5922V2.22656H45.0609V5.27344H47.4516ZM56.4094 9.04688C56.2687 8.15625 55.4719 7.57031 54.3234 7.57031C53.1984 7.57031 52.3312 8.10938 52.3547 8.88281C52.3312 9.44531 52.8 9.89062 53.9953 10.1484L56.2687 10.6172C58.7297 11.1328 59.925 12.2344 59.9484 14.0625C59.925 16.5703 57.675 18.2578 54.3 18.2578C50.8547 18.2578 48.8391 16.7109 48.5578 14.2266H52.05C52.2141 15.2344 53.0344 15.75 54.3 15.75C55.5656 15.75 56.4094 15.2344 56.4094 14.4141C56.4094 13.7578 55.8703 13.3594 54.675 13.1016L52.5656 12.6797C50.1516 12.2109 48.8859 10.9453 48.9094 9.07031C48.8859 6.63281 50.9953 5.10938 54.2766 5.10938C57.4875 5.10938 59.4797 6.63281 59.6672 9.04688H56.4094ZM61.7812 18V5.27344H65.25V18H61.7812ZM63.5156 3.60938C62.4609 3.60938 61.6172 2.8125 61.6172 1.85156C61.6172 0.867188 62.4609 0.0703125 63.5156 0.0703125C64.5469 0.0703125 65.3906 0.867188 65.3906 1.85156C65.3906 2.8125 64.5469 3.60938 63.5156 3.60938ZM74.3484 5.27344V7.875H71.9578V14.0859C71.9578 15.0938 72.45 15.3516 73.1531 15.375C73.5047 15.375 74.1141 15.3516 74.5359 15.3047V18.0469C74.1609 18.1172 73.5516 18.1641 72.6844 18.1641C70.1766 18.1641 68.4656 17.0391 68.4891 14.5781V7.875H66.7312V5.27344H68.4891V2.22656H71.9578V5.27344H74.3484ZM81.8531 18.2578C77.9625 18.2578 75.5719 15.7266 75.5719 11.6953C75.5719 7.75781 77.9859 5.10938 81.7125 5.10938C85.0641 5.10938 87.6891 7.21875 87.6891 11.5547V12.5391H78.9938C78.9938 14.4609 80.1422 15.6562 81.9234 15.6562C83.0953 15.6562 83.9391 15.1406 84.2906 14.3672H87.5953C87.1031 16.7109 84.9938 18.2578 81.8531 18.2578ZM78.9938 10.3594H84.4078C84.4078 8.8125 83.3297 7.71094 81.7828 7.71094C80.1891 7.71094 79.0523 8.89453 78.9938 10.3594Z" fill="#EE3918"/>
</svg>
